<mxfile host="Electron" modified="2024-03-29T21:34:28.813Z" agent="Mozilla/5.0 (Windows NT 10.0; Win64; x64) AppleWebKit/537.36 (KHTML, like Gecko) draw.io/24.1.0 Chrome/120.0.6099.109 Electron/28.1.0 Safari/537.36" etag="iLVhjfigZbbCrW_9vCma" version="24.1.0" type="device">
  <diagram name="Página-1" id="fJA9D_1R1IigWozn-zYy">
    <mxGraphModel dx="1420" dy="830" grid="1" gridSize="10" guides="1" tooltips="1" connect="1" arrows="1" fold="1" page="1" pageScale="1" pageWidth="827" pageHeight="1169" background="#CCE5FF" math="0" shadow="0">
      <root>
        <mxCell id="0" />
        <mxCell id="1" parent="0" />
        <mxCell id="nMHHxMlsF-FWrXNnPKKE-1" value="&lt;p style=&quot;line-height: 100%;&quot;&gt;&lt;b style=&quot;font-size: 15px;&quot;&gt;&lt;font style=&quot;font-size: 15px;&quot; color=&quot;#000000&quot; face=&quot;Comic Sans MS&quot;&gt;14&lt;br&gt;&lt;br&gt;Hacer un programa para ingresar por teclado la fecha de nacimiento de una persona, ingresando día, mes y año como 3 datos individuales. Luego ingresar la fecha actual ingresando día, mes y año como 3 datos individuales. Calcular luego la edad en años de esa persona y listar por pantalla. &lt;br&gt;&lt;br&gt;Ejemplo 1. Si se ingresa como fecha de nacimiento: 3/12/2000 y la fecha actual es 26/2/2019 la edad de esa persona es 18 ya que los 19 recién los cumple en diciembre. &lt;br&gt;&lt;br&gt;Ejemplo 2. Si se ingresa como fecha de nacimiento: 3/1/2000 y la fecha actual es 26/2/2019 la edad de esa persona es 19. &lt;br&gt;&lt;br&gt;Ejemplo 3. Si se ingresa como fecha de nacimiento: 28/2/2000 y la fecha actual es 26/2/2019 la edad de esa persona es 18 ya que le faltan 2 días para cumplir los 19 años.&lt;/font&gt;&lt;/b&gt;&lt;/p&gt;" style="text;whiteSpace=wrap;html=1;fontFamily=Architects Daughter;fontSource=https%3A%2F%2Ffonts.googleapis.com%2Fcss%3Ffamily%3DArchitects%2BDaughter;" vertex="1" parent="1">
          <mxGeometry x="40" width="700" height="250" as="geometry" />
        </mxCell>
        <mxCell id="nMHHxMlsF-FWrXNnPKKE-5" value="" style="shape=trapezoid;perimeter=trapezoidPerimeter;whiteSpace=wrap;html=1;fixedSize=1;rounded=0;labelBackgroundColor=none;strokeColor=#0F140C;strokeWidth=2;align=center;verticalAlign=middle;fontFamily=Helvetica;fontSize=12;fontColor=default;fillColor=#d5e8d4;aspect=fixed;container=0;" vertex="1" parent="1">
          <mxGeometry x="295" y="780" width="130" height="40" as="geometry" />
        </mxCell>
        <mxCell id="nMHHxMlsF-FWrXNnPKKE-21" value="&lt;b&gt;&lt;font color=&quot;#000000&quot; style=&quot;font-size: 15px;&quot; face=&quot;Comic Sans MS&quot;&gt;edad&lt;/font&gt;&lt;/b&gt;" style="text;strokeColor=none;align=center;fillColor=none;html=1;verticalAlign=middle;whiteSpace=wrap;rounded=0;fontFamily=Architects Daughter;fontSource=https%3A%2F%2Ffonts.googleapis.com%2Fcss%3Ffamily%3DArchitects%2BDaughter;aspect=fixed;container=0;" vertex="1" parent="1">
          <mxGeometry x="330" y="785" width="60" height="30" as="geometry" />
        </mxCell>
        <mxCell id="nMHHxMlsF-FWrXNnPKKE-22" value="" style="line;strokeWidth=2;direction=south;html=1;hachureGap=4;fontFamily=Architects Daughter;fontSource=https://fonts.googleapis.com/css?family=Architects+Daughter;strokeColor=#000000;aspect=fixed;container=0;" vertex="1" parent="1">
          <mxGeometry x="186" y="690" width="10" height="40" as="geometry" />
        </mxCell>
        <mxCell id="nMHHxMlsF-FWrXNnPKKE-23" value="" style="line;strokeWidth=2;direction=south;html=1;hachureGap=4;fontFamily=Architects Daughter;fontSource=https://fonts.googleapis.com/css?family=Architects+Daughter;strokeColor=#000000;aspect=fixed;container=0;" vertex="1" parent="1">
          <mxGeometry x="525" y="600" width="10" height="130" as="geometry" />
        </mxCell>
        <mxCell id="nMHHxMlsF-FWrXNnPKKE-24" value="" style="line;strokeWidth=2;direction=south;html=1;hachureGap=4;fontFamily=Architects Daughter;fontSource=https://fonts.googleapis.com/css?family=Architects+Daughter;strokeColor=#000000;aspect=fixed;container=0;" vertex="1" parent="1">
          <mxGeometry x="185" y="600" width="10" height="50" as="geometry" />
        </mxCell>
        <mxCell id="nMHHxMlsF-FWrXNnPKKE-25" value="" style="line;strokeWidth=2;direction=south;html=1;hachureGap=4;fontFamily=Architects Daughter;fontSource=https://fonts.googleapis.com/css?family=Architects+Daughter;strokeColor=#000000;aspect=fixed;container=0;" vertex="1" parent="1">
          <mxGeometry x="355" y="480" width="10" height="30" as="geometry" />
        </mxCell>
        <mxCell id="nMHHxMlsF-FWrXNnPKKE-26" value="" style="line;strokeWidth=2;direction=south;html=1;hachureGap=4;fontFamily=Architects Daughter;fontSource=https://fonts.googleapis.com/css?family=Architects+Daughter;strokeColor=#000000;aspect=fixed;container=0;" vertex="1" parent="1">
          <mxGeometry x="355" y="330" width="10" height="30" as="geometry" />
        </mxCell>
        <mxCell id="nMHHxMlsF-FWrXNnPKKE-27" value="" style="line;strokeWidth=2;direction=south;html=1;hachureGap=4;fontFamily=Architects Daughter;fontSource=https://fonts.googleapis.com/css?family=Architects+Daughter;strokeColor=#000000;aspect=fixed;container=0;" vertex="1" parent="1">
          <mxGeometry x="355" y="410" width="10" height="30" as="geometry" />
        </mxCell>
        <mxCell id="nMHHxMlsF-FWrXNnPKKE-29" value="" style="line;strokeWidth=2;direction=south;html=1;hachureGap=4;fontFamily=Architects Daughter;fontSource=https://fonts.googleapis.com/css?family=Architects+Daughter;strokeColor=#000000;aspect=fixed;container=0;" vertex="1" parent="1">
          <mxGeometry x="355" y="820" width="10" height="30" as="geometry" />
        </mxCell>
        <mxCell id="nMHHxMlsF-FWrXNnPKKE-30" value="" style="line;strokeWidth=2;direction=south;html=1;hachureGap=4;fontFamily=Architects Daughter;fontSource=https://fonts.googleapis.com/css?family=Architects+Daughter;strokeColor=#000000;aspect=fixed;container=0;" vertex="1" parent="1">
          <mxGeometry x="355.5" y="730" width="10" height="50" as="geometry" />
        </mxCell>
        <mxCell id="nMHHxMlsF-FWrXNnPKKE-36" value="" style="line;strokeWidth=2;html=1;perimeter=backbonePerimeter;points=[];outlineConnect=0;hachureGap=4;fontFamily=Architects Daughter;fontSource=https://fonts.googleapis.com/css?family=Architects+Daughter;strokeColor=#000000;aspect=fixed;container=0;" vertex="1" parent="1">
          <mxGeometry x="190" y="727" width="341" height="10" as="geometry" />
        </mxCell>
        <mxCell id="nMHHxMlsF-FWrXNnPKKE-37" value="" style="line;strokeWidth=2;html=1;perimeter=backbonePerimeter;points=[];outlineConnect=0;hachureGap=4;fontFamily=Architects Daughter;fontSource=https://fonts.googleapis.com/css?family=Architects+Daughter;strokeColor=#000000;aspect=fixed;container=0;" vertex="1" parent="1">
          <mxGeometry x="190" y="595" width="70" height="10" as="geometry" />
        </mxCell>
        <mxCell id="nMHHxMlsF-FWrXNnPKKE-38" value="" style="line;strokeWidth=2;html=1;perimeter=backbonePerimeter;points=[];outlineConnect=0;hachureGap=4;fontFamily=Architects Daughter;fontSource=https://fonts.googleapis.com/css?family=Architects+Daughter;strokeColor=#000000;aspect=fixed;container=0;" vertex="1" parent="1">
          <mxGeometry x="460" y="595" width="70" height="10" as="geometry" />
        </mxCell>
        <mxCell id="nMHHxMlsF-FWrXNnPKKE-43" value="&lt;font style=&quot;font-size: 13px;&quot;&gt;F&lt;/font&gt;" style="text;strokeColor=none;align=center;fillColor=none;html=1;verticalAlign=middle;whiteSpace=wrap;rounded=0;fontFamily=Comic Sans MS;fontStyle=1;fontSize=14;fontColor=#000000;aspect=fixed;container=0;" vertex="1" parent="1">
          <mxGeometry x="500" y="570" width="40" height="40" as="geometry" />
        </mxCell>
        <mxCell id="nMHHxMlsF-FWrXNnPKKE-41" value="&lt;font style=&quot;font-size: 13px;&quot;&gt;V&lt;/font&gt;" style="text;strokeColor=none;align=center;fillColor=none;html=1;verticalAlign=middle;whiteSpace=wrap;rounded=0;fontFamily=Comic Sans MS;fontStyle=1;fontSize=14;fontColor=#000000;aspect=fixed;container=0;" vertex="1" parent="1">
          <mxGeometry x="165" y="570" width="60" height="40" as="geometry" />
        </mxCell>
        <mxCell id="nMHHxMlsF-FWrXNnPKKE-2" value="" style="strokeWidth=2;html=1;shape=mxgraph.flowchart.start_2;whiteSpace=wrap;rounded=0;labelBackgroundColor=none;strokeColor=#000000;align=center;verticalAlign=middle;fontFamily=Helvetica;fontSize=12;fontColor=default;fillColor=#d5e8d4;aspect=fixed;container=0;" vertex="1" parent="1">
          <mxGeometry x="340" y="290" width="40" height="40" as="geometry" />
        </mxCell>
        <mxCell id="nMHHxMlsF-FWrXNnPKKE-6" value="&lt;font color=&quot;#000000&quot; size=&quot;1&quot; face=&quot;Comic Sans MS&quot;&gt;&lt;b style=&quot;font-size: 17px;&quot;&gt;I&lt;/b&gt;&lt;/font&gt;" style="text;strokeColor=none;align=center;fillColor=none;html=1;verticalAlign=middle;whiteSpace=wrap;rounded=0;fontFamily=Architects Daughter;fontSource=https%3A%2F%2Ffonts.googleapis.com%2Fcss%3Ffamily%3DArchitects%2BDaughter;aspect=fixed;container=0;" vertex="1" parent="1">
          <mxGeometry x="345" y="295" width="30" height="30" as="geometry" />
        </mxCell>
        <mxCell id="nMHHxMlsF-FWrXNnPKKE-3" value="" style="strokeWidth=2;html=1;shape=mxgraph.flowchart.start_2;whiteSpace=wrap;rounded=0;labelBackgroundColor=none;strokeColor=#000000;align=center;verticalAlign=middle;fontFamily=Helvetica;fontSize=12;fontColor=default;fillColor=#d5e8d4;aspect=fixed;container=0;" vertex="1" parent="1">
          <mxGeometry x="340" y="850" width="40" height="40" as="geometry" />
        </mxCell>
        <mxCell id="nMHHxMlsF-FWrXNnPKKE-7" value="&lt;font color=&quot;#000000&quot; size=&quot;1&quot; face=&quot;Comic Sans MS&quot;&gt;&lt;b style=&quot;font-size: 17px;&quot;&gt;F&lt;/b&gt;&lt;/font&gt;" style="text;strokeColor=none;align=center;fillColor=none;html=1;verticalAlign=middle;whiteSpace=wrap;rounded=0;fontFamily=Architects Daughter;fontSource=https://fonts.googleapis.com/css?family=Architects+Daughter;aspect=fixed;container=0;" vertex="1" parent="1">
          <mxGeometry x="345" y="855" width="30" height="30" as="geometry" />
        </mxCell>
        <mxCell id="nMHHxMlsF-FWrXNnPKKE-4" value="" style="shape=trapezoid;perimeter=trapezoidPerimeter;whiteSpace=wrap;html=1;fixedSize=1;rounded=0;labelBackgroundColor=none;strokeColor=#121211;strokeWidth=2;align=center;verticalAlign=middle;fontFamily=Helvetica;fontSize=12;fontColor=default;fillColor=#d5e8d4;direction=west;container=0;aspect=fixed;" vertex="1" parent="1">
          <mxGeometry x="231.25" y="360" width="257.5" height="50" as="geometry">
            <mxRectangle x="-1020" y="-650" width="50" height="40" as="alternateBounds" />
          </mxGeometry>
        </mxCell>
        <mxCell id="nMHHxMlsF-FWrXNnPKKE-10" value="&lt;font face=&quot;Comic Sans MS&quot; color=&quot;#000000&quot;&gt;&lt;span style=&quot;font-size: 14px;&quot;&gt;&lt;b&gt;dia_nac, mes_nac, año_nac,&lt;/b&gt;&lt;/span&gt;&lt;/font&gt;&lt;div&gt;&lt;font face=&quot;Comic Sans MS&quot; color=&quot;#000000&quot;&gt;&lt;span style=&quot;font-size: 14px;&quot;&gt;&lt;b&gt;dia_act, mes_act, año_act&amp;nbsp;&lt;/b&gt;&lt;/span&gt;&lt;/font&gt;&lt;/div&gt;" style="text;strokeColor=none;align=center;fillColor=none;html=1;verticalAlign=middle;whiteSpace=wrap;rounded=0;fontFamily=Architects Daughter;fontSource=https%3A%2F%2Ffonts.googleapis.com%2Fcss%3Ffamily%3DArchitects%2BDaughter;aspect=fixed;container=0;" vertex="1" parent="1">
          <mxGeometry x="250.62" y="360" width="216.25" height="50" as="geometry" />
        </mxCell>
        <mxCell id="nMHHxMlsF-FWrXNnPKKE-13" value="" style="rounded=0;whiteSpace=wrap;html=1;labelBackgroundColor=none;strokeColor=#0f100e;strokeWidth=2;align=center;verticalAlign=middle;fontFamily=Helvetica;fontSize=12;fontColor=default;fillColor=#d5e8d4;aspect=fixed;container=0;" vertex="1" parent="1">
          <mxGeometry x="251.25" y="440" width="220" height="40" as="geometry" />
        </mxCell>
        <mxCell id="nMHHxMlsF-FWrXNnPKKE-14" value="&lt;b&gt;&lt;font face=&quot;Comic Sans MS&quot; color=&quot;#000000&quot; style=&quot;font-size: 15px;&quot;&gt;edad = año_act - año_nac&lt;/font&gt;&lt;/b&gt;" style="text;strokeColor=none;align=center;fillColor=none;html=1;verticalAlign=middle;whiteSpace=wrap;rounded=0;fontFamily=Architects Daughter;fontSource=https%3A%2F%2Ffonts.googleapis.com%2Fcss%3Ffamily%3DArchitects%2BDaughter;aspect=fixed;container=0;" vertex="1" parent="1">
          <mxGeometry x="235" y="445" width="250" height="30" as="geometry" />
        </mxCell>
        <mxCell id="nMHHxMlsF-FWrXNnPKKE-12" value="" style="rhombus;whiteSpace=wrap;html=1;rounded=0;labelBackgroundColor=none;strokeColor=#0F140C;strokeWidth=2;align=center;verticalAlign=middle;fontFamily=Helvetica;fontSize=12;fontColor=default;fillColor=#d5e8d4;aspect=fixed;container=0;" vertex="1" parent="1">
          <mxGeometry x="260" y="510" width="200" height="180" as="geometry" />
        </mxCell>
        <mxCell id="nMHHxMlsF-FWrXNnPKKE-16" value="&lt;b&gt;&lt;font color=&quot;#000000&quot; style=&quot;font-size: 12px;&quot; face=&quot;Comic Sans MS&quot;&gt;mes_nac &amp;gt; mes_act&amp;nbsp;&lt;/font&gt;&lt;/b&gt;&lt;div&gt;&lt;b&gt;&lt;font color=&quot;#000000&quot; style=&quot;font-size: 12px;&quot; face=&quot;Comic Sans MS&quot;&gt;||&lt;/font&gt;&lt;/b&gt;&lt;/div&gt;&lt;div&gt;&lt;b&gt;&lt;font color=&quot;#000000&quot; style=&quot;font-size: 12px;&quot; face=&quot;Comic Sans MS&quot;&gt;(mes_nac == mes_act&amp;nbsp;&lt;/font&gt;&lt;/b&gt;&lt;/div&gt;&lt;div&gt;&lt;b&gt;&lt;font color=&quot;#000000&quot; style=&quot;font-size: 12px;&quot; face=&quot;Comic Sans MS&quot;&gt;&amp;amp;&amp;amp;&lt;/font&gt;&lt;/b&gt;&lt;/div&gt;&lt;div&gt;&lt;b&gt;&lt;font color=&quot;#000000&quot; style=&quot;font-size: 12px;&quot; face=&quot;Comic Sans MS&quot;&gt;dia_nac &amp;gt; dia_act)&lt;/font&gt;&lt;/b&gt;&lt;/div&gt;" style="text;strokeColor=none;align=center;fillColor=none;html=1;verticalAlign=middle;whiteSpace=wrap;rounded=0;fontFamily=Architects Daughter;fontSource=https%3A%2F%2Ffonts.googleapis.com%2Fcss%3Ffamily%3DArchitects%2BDaughter;aspect=fixed;container=0;" vertex="1" parent="1">
          <mxGeometry x="275" y="560" width="170" height="80" as="geometry" />
        </mxCell>
        <mxCell id="nMHHxMlsF-FWrXNnPKKE-18" value="" style="rounded=0;whiteSpace=wrap;html=1;labelBackgroundColor=none;strokeColor=#0f100e;strokeWidth=2;align=center;verticalAlign=middle;fontFamily=Helvetica;fontSize=12;fontColor=default;fillColor=#d5e8d4;aspect=fixed;container=0;" vertex="1" parent="1">
          <mxGeometry x="130" y="650" width="130" height="40" as="geometry" />
        </mxCell>
        <mxCell id="nMHHxMlsF-FWrXNnPKKE-19" value="&lt;font color=&quot;#000000&quot; size=&quot;1&quot; face=&quot;Comic Sans MS&quot;&gt;&lt;b style=&quot;font-size: 14px;&quot;&gt;edad = edad - 1&lt;/b&gt;&lt;/font&gt;" style="text;strokeColor=none;align=center;fillColor=none;html=1;verticalAlign=middle;whiteSpace=wrap;rounded=0;fontFamily=Architects Daughter;fontSource=https%3A%2F%2Ffonts.googleapis.com%2Fcss%3Ffamily%3DArchitects%2BDaughter;aspect=fixed;container=0;" vertex="1" parent="1">
          <mxGeometry x="135" y="660" width="120" height="20" as="geometry" />
        </mxCell>
      </root>
    </mxGraphModel>
  </diagram>
</mxfile>
